<?xml version="1.0" encoding="UTF-8"?>
<svg width="42px" height="43px" viewBox="0 0 42 43" xmlns="http://www.w3.org/2000/svg" xmlns:xlink="http://www.w3.org/1999/xlink" version="1.1">
 <!-- Generated by Pixelmator Pro 1.2 -->
 <defs>
  <linearGradient id="linear-gradient" gradientUnits="userSpaceOnUse" x1="32.675" y1="28.344" x2="8.457" y2="28.344">
   <stop offset="0" stop-color="#ff686d" stop-opacity="1"/>
   <stop offset="1" stop-color="#f33d44" stop-opacity="1"/>
  </linearGradient>
 </defs>
 <path id="path" d="M20.583 23.833 L13.093 27.935 8.5 30.45 8.5 30.485 11.28 32.008 13.093 33 13.093 32.965 20.583 28.863 28.074 32.965 28.074 33 29.886 32.008 32.667 30.485 32.667 30.45 28.074 27.935 Z" fill-opacity="1" fill="url(#linear-gradient)" stroke="none"/>
 <defs>
  <linearGradient id="linear-gradient-1" gradientUnits="userSpaceOnUse" x1="32.758" y1="21.232" x2="8.54" y2="21.232">
   <stop offset="0" stop-color="#ff686d" stop-opacity="1"/>
   <stop offset="1" stop-color="#f33d44" stop-opacity="1"/>
  </linearGradient>
 </defs>
 <path id="path-1" d="M20.667 9.75 L8.583 16.653 8.583 30.46 11.363 32.048 13.176 33.083 13.176 19.277 20.667 14.997 28.157 19.277 28.157 33.083 29.97 32.048 32.75 30.46 32.75 16.653 Z" fill-opacity="1" fill="url(#linear-gradient-1)" stroke="none"/>
</svg>
